<svg xmlns="http://www.w3.org/2000/svg" viewBox="0 0 873 432"><defs><style>.cls-1{opacity:0.8;}</style></defs><title>Recurso 1</title><g id="Capa_2" data-name="Capa 2"><g id="Capa_1-2" data-name="Capa 1"><g id="logo"><g class="cls-1"><path d="M336.79,105.81l-70.36,19.87q-4.56-24-26.7-43.84T175.89,62q-34.54,0-57,17.54T96.41,121.59q0,42.67,54.07,53.2l66.45,12.27q59.93,10.53,92.5,42.68T342,306.32q0,51.44-44,88.56T178.49,432q-81.43,0-127-38.29T0,304.56l73-18.7q3.92,35.07,31.27,59t74.26,24q40.38,0,62.21-16.08t21.83-41.21q0-20.46-16.29-35.37t-45.6-20.75L135.5,243.18q-54.07-9.93-85.67-40.33t-31.59-76q0-52,46.25-89.44T175.23,0q73.62,0,112.7,31.86T336.79,105.81Z"/></g><g class="cls-1"><path d="M188.4,432l174-241.29L190.2,0H285L468,207.17V0h72V432H468V307.7l-56.4-62.76L279,432Z"/></g><g class="cls-1"><path d="M680.4,432Q591,432,528.3,373C486.5,333.6,468,281.09,468,216c0-64.69,18.8-116.62,61.2-156.37S621.8,0,679.8,0q76.8,0,126.3,38t65.1,96.45l-67.8,22.22Q793.19,116.34,762,91.19T679.8,66.06q-57,0-98.7,39.46C553.29,131.82,540,168.46,540,216c0,46.38,13.2,83,40.8,109.32s60.8,39.45,99.6,39.45q49.8,0,82.2-26.3T807,273.58l66,21.05q-15.62,57.87-65.7,97.62T680.4,432Z"/></g></g></g></g></svg>